# xmcd CD database file
# Copyright (C) 1993-1998 Ti Kan
# 
# Track frame offsets:
#     180
#     26302
#     43689
#     68426
#     89636
#     102829
#     118388
#     141557
#     159757
#     177206
# 
# Disc length: 2605 seconds
# 
# Revision: 1
# Processed by: cddbd v1.4b41PL1 Copyright (c) Steve Scherf et al.
# Submitted via: DiscPlay 4.0.4
# 
DISCID=810a2b0a
DTITLE=Twelve Gauge Band - The Twelve Gauge Band
DYEAR=1900
DGENRE=
TTITLE0=Stay With Me Darlin'
TTITLE1=Jones N' For Some George
TTITLE2=Sleep Perchance To Dream
TTITLE3=I'm Gonna Remember You
TTITLE4=Who's Gonna Love You
TTITLE5=Short Line
TTITLE6=I Dream of You
TTITLE7=Charlie Sue
TTITLE8=Waitin' For The Phone To Ring
TTITLE9=Both Barrels
EXTD=
EXTT0=
EXTT1=
EXTT2=
EXTT3=
EXTT4=
EXTT5=
EXTT6=
EXTT7=
EXTT8=
EXTT9=
PLAYORDER=
